<svg xmlns="http://www.w3.org/2000/svg" xmlns:xlink="http://www.w3.org/1999/xlink" width="500" zoomAndPan="magnify" viewBox="0 0 375 374.999991" height="500" preserveAspectRatio="xMidYMid meet" version="1.0"><defs><g/></defs><path stroke-linecap="butt" transform="matrix(9.018915, 0, 0, 9.216, 91.066859, 212.729283)" fill="none" stroke-linejoin="miter" d="M -0.0000501468 0.00012868 L 12.391009 0.00012868 " stroke="#ffffff" stroke-width="1" stroke-opacity="1" stroke-miterlimit="4"/><g fill="#ffffff" fill-opacity="1"><g transform="translate(91.066859, 195.260788)"><g><path d="M 3.53125 -35.234375 L 20.1875 -35.234375 C 24.050781 -35.234375 27.472656 -34.507812 30.453125 -33.0625 C 33.441406 -31.625 35.757812 -29.578125 37.40625 -26.921875 C 39.050781 -24.273438 39.875 -21.175781 39.875 -17.625 C 39.875 -14.0625 39.050781 -10.953125 37.40625 -8.296875 C 35.757812 -5.648438 33.441406 -3.601562 30.453125 -2.15625 C 27.472656 -0.71875 24.050781 0 20.1875 0 L 3.53125 0 Z M 19.78125 -7.953125 C 22.800781 -7.953125 25.222656 -8.804688 27.046875 -10.515625 C 28.878906 -12.234375 29.796875 -14.601562 29.796875 -17.625 C 29.796875 -20.644531 28.878906 -23.007812 27.046875 -24.71875 C 25.222656 -26.425781 22.800781 -27.28125 19.78125 -27.28125 L 13.484375 -27.28125 L 13.484375 -7.953125 Z M 19.78125 -7.953125 "/></g></g></g><g fill="#ffffff" fill-opacity="1"><g transform="translate(137.031086, 195.260788)"><g><path d="M 27.140625 -6.84375 L 12.234375 -6.84375 L 9.46875 0 L -0.703125 0 L 14.84375 -35.234375 L 24.671875 -35.234375 L 40.28125 0 L 29.90625 0 Z M 24.21875 -14.203125 L 19.6875 -25.46875 L 15.15625 -14.203125 Z M 24.21875 -14.203125 "/></g></g></g><g fill="#ffffff" fill-opacity="1"><g transform="translate(180.981566, 195.260788)"><g><path d="M 11.03125 -27.34375 L 0.203125 -27.34375 L 0.203125 -35.234375 L 31.765625 -35.234375 L 31.765625 -27.34375 L 21 -27.34375 L 21 0 L 11.03125 0 Z M 11.03125 -27.34375 "/></g></g></g><g fill="#ffffff" fill-opacity="1"><g transform="translate(217.330122, 195.260788)"><g><path d="M 27.140625 -6.84375 L 12.234375 -6.84375 L 9.46875 0 L -0.703125 0 L 14.84375 -35.234375 L 24.671875 -35.234375 L 40.28125 0 L 29.90625 0 Z M 24.21875 -14.203125 L 19.6875 -25.46875 L 15.15625 -14.203125 Z M 24.21875 -14.203125 "/></g></g></g><g fill="#ffffff" fill-opacity="1"><g transform="translate(208.34378, 216.177348)"><g><path d="M 4.21875 -7.796875 C 5.21875 -7.796875 6.007812 -7.550781 6.59375 -7.0625 C 7.175781 -6.582031 7.46875 -5.921875 7.46875 -5.078125 C 7.46875 -4.234375 7.175781 -3.566406 6.59375 -3.078125 C 6.007812 -2.597656 5.21875 -2.359375 4.21875 -2.359375 L 2.28125 -2.359375 L 2.28125 0 L 1.171875 0 L 1.171875 -7.796875 Z M 4.171875 -3.328125 C 4.878906 -3.328125 5.414062 -3.476562 5.78125 -3.78125 C 6.15625 -4.082031 6.34375 -4.515625 6.34375 -5.078125 C 6.34375 -5.640625 6.15625 -6.070312 5.78125 -6.375 C 5.414062 -6.675781 4.878906 -6.828125 4.171875 -6.828125 L 2.28125 -6.828125 L 2.28125 -3.328125 Z M 4.171875 -3.328125 "/></g></g></g><g fill="#ffffff" fill-opacity="1"><g transform="translate(219.154256, 216.177348)"><g><path d="M 4.6875 0.09375 C 3.90625 0.09375 3.195312 -0.078125 2.5625 -0.421875 C 1.925781 -0.773438 1.425781 -1.253906 1.0625 -1.859375 C 0.707031 -2.472656 0.53125 -3.15625 0.53125 -3.90625 C 0.53125 -4.65625 0.707031 -5.332031 1.0625 -5.9375 C 1.425781 -6.539062 1.925781 -7.015625 2.5625 -7.359375 C 3.195312 -7.710938 3.90625 -7.890625 4.6875 -7.890625 C 5.46875 -7.890625 6.171875 -7.710938 6.796875 -7.359375 C 7.429688 -7.015625 7.925781 -6.539062 8.28125 -5.9375 C 8.644531 -5.332031 8.828125 -4.65625 8.828125 -3.90625 C 8.828125 -3.144531 8.644531 -2.460938 8.28125 -1.859375 C 7.925781 -1.253906 7.429688 -0.773438 6.796875 -0.421875 C 6.171875 -0.078125 5.46875 0.09375 4.6875 0.09375 Z M 4.6875 -0.90625 C 5.257812 -0.90625 5.773438 -1.035156 6.234375 -1.296875 C 6.691406 -1.554688 7.050781 -1.910156 7.3125 -2.359375 C 7.570312 -2.816406 7.703125 -3.332031 7.703125 -3.90625 C 7.703125 -4.46875 7.570312 -4.972656 7.3125 -5.421875 C 7.050781 -5.878906 6.691406 -6.238281 6.234375 -6.5 C 5.773438 -6.757812 5.257812 -6.890625 4.6875 -6.890625 C 4.113281 -6.890625 3.59375 -6.757812 3.125 -6.5 C 2.664062 -6.238281 2.304688 -5.878906 2.046875 -5.421875 C 1.785156 -4.972656 1.65625 -4.46875 1.65625 -3.90625 C 1.65625 -3.332031 1.785156 -2.816406 2.046875 -2.359375 C 2.304688 -1.910156 2.664062 -1.554688 3.125 -1.296875 C 3.59375 -1.035156 4.113281 -0.90625 4.6875 -0.90625 Z M 4.6875 -0.90625 "/></g></g></g><g fill="#ffffff" fill-opacity="1"><g transform="translate(231.279795, 216.177348)"><g><path d="M 6.390625 0 L 4.703125 -2.390625 C 4.492188 -2.378906 4.332031 -2.375 4.21875 -2.375 L 2.28125 -2.375 L 2.28125 0 L 1.171875 0 L 1.171875 -7.796875 L 4.21875 -7.796875 C 5.21875 -7.796875 6.007812 -7.550781 6.59375 -7.0625 C 7.175781 -6.582031 7.46875 -5.921875 7.46875 -5.078125 C 7.46875 -4.472656 7.316406 -3.957031 7.015625 -3.53125 C 6.722656 -3.113281 6.300781 -2.8125 5.75 -2.625 L 7.59375 0 Z M 4.171875 -3.3125 C 4.878906 -3.3125 5.414062 -3.460938 5.78125 -3.765625 C 6.15625 -4.078125 6.34375 -4.515625 6.34375 -5.078125 C 6.34375 -5.640625 6.15625 -6.070312 5.78125 -6.375 C 5.414062 -6.675781 4.878906 -6.828125 4.171875 -6.828125 L 2.28125 -6.828125 L 2.28125 -3.3125 Z M 4.171875 -3.3125 "/></g></g></g><g fill="#ffffff" fill-opacity="1"><g transform="translate(242.145991, 216.177348)"><g><path d="M 2.71875 -6.828125 L 0.046875 -6.828125 L 0.046875 -7.796875 L 6.5 -7.796875 L 6.5 -6.828125 L 3.828125 -6.828125 L 3.828125 0 L 2.71875 0 Z M 2.71875 -6.828125 "/></g></g></g><g fill="#ffffff" fill-opacity="1"><g transform="translate(251.451948, 216.177348)"><g><path d="M 2.28125 -6.828125 L 2.28125 -4.109375 L 6.1875 -4.109375 L 6.1875 -3.15625 L 2.28125 -3.15625 L 2.28125 0 L 1.171875 0 L 1.171875 -7.796875 L 6.671875 -7.796875 L 6.671875 -6.828125 Z M 2.28125 -6.828125 "/></g></g></g><g fill="#ffffff" fill-opacity="1"><g transform="translate(261.292848, 216.177348)"><g><path d="M 4.6875 0.09375 C 3.90625 0.09375 3.195312 -0.078125 2.5625 -0.421875 C 1.925781 -0.773438 1.425781 -1.253906 1.0625 -1.859375 C 0.707031 -2.472656 0.53125 -3.15625 0.53125 -3.90625 C 0.53125 -4.65625 0.707031 -5.332031 1.0625 -5.9375 C 1.425781 -6.539062 1.925781 -7.015625 2.5625 -7.359375 C 3.195312 -7.710938 3.90625 -7.890625 4.6875 -7.890625 C 5.46875 -7.890625 6.171875 -7.710938 6.796875 -7.359375 C 7.429688 -7.015625 7.925781 -6.539062 8.28125 -5.9375 C 8.644531 -5.332031 8.828125 -4.65625 8.828125 -3.90625 C 8.828125 -3.144531 8.644531 -2.460938 8.28125 -1.859375 C 7.925781 -1.253906 7.429688 -0.773438 6.796875 -0.421875 C 6.171875 -0.078125 5.46875 0.09375 4.6875 0.09375 Z M 4.6875 -0.90625 C 5.257812 -0.90625 5.773438 -1.035156 6.234375 -1.296875 C 6.691406 -1.554688 7.050781 -1.910156 7.3125 -2.359375 C 7.570312 -2.816406 7.703125 -3.332031 7.703125 -3.90625 C 7.703125 -4.46875 7.570312 -4.972656 7.3125 -5.421875 C 7.050781 -5.878906 6.691406 -6.238281 6.234375 -6.5 C 5.773438 -6.757812 5.257812 -6.890625 4.6875 -6.890625 C 4.113281 -6.890625 3.59375 -6.757812 3.125 -6.5 C 2.664062 -6.238281 2.304688 -5.878906 2.046875 -5.421875 C 1.785156 -4.972656 1.65625 -4.46875 1.65625 -3.90625 C 1.65625 -3.332031 1.785156 -2.816406 2.046875 -2.359375 C 2.304688 -1.910156 2.664062 -1.554688 3.125 -1.296875 C 3.59375 -1.035156 4.113281 -0.90625 4.6875 -0.90625 Z M 4.6875 -0.90625 "/></g></g></g><g fill="#ffffff" fill-opacity="1"><g transform="translate(273.418389, 216.177348)"><g><path d="M 1.171875 -7.796875 L 2.28125 -7.796875 L 2.28125 -0.96875 L 6.5 -0.96875 L 6.5 0 L 1.171875 0 Z M 1.171875 -7.796875 "/></g></g></g><g fill="#ffffff" fill-opacity="1"><g transform="translate(282.80236, 216.177348)"><g><path d="M 1.171875 -7.796875 L 2.28125 -7.796875 L 2.28125 0 L 1.171875 0 Z M 1.171875 -7.796875 "/></g></g></g><g fill="#ffffff" fill-opacity="1"><g transform="translate(289.021274, 216.177348)"><g><path d="M 4.6875 0.09375 C 3.90625 0.09375 3.195312 -0.078125 2.5625 -0.421875 C 1.925781 -0.773438 1.425781 -1.253906 1.0625 -1.859375 C 0.707031 -2.472656 0.53125 -3.15625 0.53125 -3.90625 C 0.53125 -4.65625 0.707031 -5.332031 1.0625 -5.9375 C 1.425781 -6.539062 1.925781 -7.015625 2.5625 -7.359375 C 3.195312 -7.710938 3.90625 -7.890625 4.6875 -7.890625 C 5.46875 -7.890625 6.171875 -7.710938 6.796875 -7.359375 C 7.429688 -7.015625 7.925781 -6.539062 8.28125 -5.9375 C 8.644531 -5.332031 8.828125 -4.65625 8.828125 -3.90625 C 8.828125 -3.144531 8.644531 -2.460938 8.28125 -1.859375 C 7.925781 -1.253906 7.429688 -0.773438 6.796875 -0.421875 C 6.171875 -0.078125 5.46875 0.09375 4.6875 0.09375 Z M 4.6875 -0.90625 C 5.257812 -0.90625 5.773438 -1.035156 6.234375 -1.296875 C 6.691406 -1.554688 7.050781 -1.910156 7.3125 -2.359375 C 7.570312 -2.816406 7.703125 -3.332031 7.703125 -3.90625 C 7.703125 -4.46875 7.570312 -4.972656 7.3125 -5.421875 C 7.050781 -5.878906 6.691406 -6.238281 6.234375 -6.5 C 5.773438 -6.757812 5.257812 -6.890625 4.6875 -6.890625 C 4.113281 -6.890625 3.59375 -6.757812 3.125 -6.5 C 2.664062 -6.238281 2.304688 -5.878906 2.046875 -5.421875 C 1.785156 -4.972656 1.65625 -4.46875 1.65625 -3.90625 C 1.65625 -3.332031 1.785156 -2.816406 2.046875 -2.359375 C 2.304688 -1.910156 2.664062 -1.554688 3.125 -1.296875 C 3.59375 -1.035156 4.113281 -0.90625 4.6875 -0.90625 Z M 4.6875 -0.90625 "/></g></g></g></svg>